<svg width="60" height="60" viewBox="0 0 60 60" fill="none" xmlns="http://www.w3.org/2000/svg">
<path d="M54.9254 60H5.07463C2.38806 60 0 57.6119 0 54.9254V5.07463C0 2.38806 2.38806 0 5.07463 0H54.9254C57.6119 0 60 2.38806 60 5.07463V54.9254C60 57.6119 57.6119 60 54.9254 60Z" fill="#00A76E"/>
<path d="M43.175 16.2301H37.5838C37.0247 16.2301 36.4655 16.7907 36.4655 17.3513L33.9495 26.0405C33.9495 26.3208 33.6699 26.3208 33.3904 26.3208H25.0035C24.724 26.3208 24.724 26.0405 24.724 26.0405L26.9605 17.3513C27.24 16.7907 26.9605 16.2301 26.4014 16.2301H20.8101C20.5306 16.2301 19.9714 16.7907 19.6919 17.3513L12.9824 42.2978C12.9824 42.8584 13.262 43.419 13.8211 43.419H19.4123C19.9714 43.419 20.5306 42.8584 20.8101 42.2978L23.3262 33.3283C23.3782 33.2232 23.3762 33.0904 23.5141 33.048H31.713C31.9926 33.048 31.9926 33.3283 31.9926 33.3283L29.7561 42.2978C29.4765 42.8584 29.7561 43.419 30.3152 43.419H35.9064C36.4655 43.419 37.0247 42.8584 37.3042 42.2978L44.0137 17.071C44.0137 16.7907 43.7341 16.2301 43.175 16.2301Z" fill="white"/>
<path d="M46.25 37.8129H43.1749C42.3362 37.8129 41.7771 38.3735 41.4975 39.2144L40.9384 42.0173C40.6588 42.8582 41.2179 43.4188 41.7771 43.4188H44.8522C45.6909 43.4188 46.25 42.8582 46.5296 42.0173L47.3683 38.9341C47.3683 38.3735 47.0887 37.8129 46.25 37.8129Z" fill="white"/>
</svg>
